<?xml version="1.0" encoding="utf-8"?>
<!-- Generator: Adobe Illustrator 24.2.1, SVG Export Plug-In . SVG Version: 6.00 Build 0)  -->
<svg version="1.1" id="Calque_1" xmlns="http://www.w3.org/2000/svg" xmlns:xlink="http://www.w3.org/1999/xlink" x="0px" y="0px"
	 viewBox="0 0 488 90" style="enable-background:new 0 0 488 90;" xml:space="preserve">
<style type="text/css">
	.st0{fill:#1D1D1B;}
</style>
<g id="_x34_09599fb-89aa-4ddd-9c19-604f11e9ffd0" transform="matrix(4.357298631868611,0,0,4.357298631868611,127.58696443664917,-10.718954323777375)">
	<path d="M1.5,14.6L1.5,14.6L1.5,14.6c-0.1-0.2-0.1-0.5-0.1-0.9l0,0l0,0c0-0.4,0.1-1.6,0.4-3.6l0,0l0,0c0.3-2,0.4-3.5,0.4-4.7l0,0
		l0,0c0-0.3,0-0.7-0.1-1.2l0,0l0,0c0.7,0,1.1,0.2,1.3,0.5l0,0l0,0C3.6,4.9,3.7,5,3.7,5.2l0,0l0,0c0,0.2,0,0.4,0,0.7l0,0l0,0
		c0,0.3-0.2,1.6-0.5,3.7l0,0l0,0c-0.3,2.2-0.5,3.7-0.5,4.6l0,0l0,0c0,0,0.1,0,0.3,0l0,0l0,0c2,0,3.5-0.1,4.5-0.4l0,0l0,0
		c-0.1,0.5-0.3,1-0.5,1.3l0,0l0,0c-0.3,0.3-0.7,0.4-1.1,0.4l0,0l0,0c-0.1,0-0.5,0-1.2-0.1l0,0l0,0c-0.7-0.1-1.3-0.1-2-0.1l0,0l0,0
		c-0.6,0-1.3,0.1-1.9,0.2l0,0l0,0C0.9,15.1,1.2,14.8,1.5,14.6z M10.8,10L10.8,10L10.8,10c-0.3,0.5-0.5,0.9-0.6,1.4l0,0l0,0
		c-0.1,0.5-0.2,1-0.2,1.4l0,0l0,0c0,0.4,0.1,0.8,0.3,1.1l0,0l0,0c0.2,0.3,0.5,0.5,0.9,0.5l0,0l0,0c0.5,0,1-0.3,1.5-0.9l0,0l0,0
		c0.5-0.6,0.8-1.3,1.1-2.1l0,0l0,0c0.2-0.8,0.4-1.6,0.4-2.3l0,0l0,0c0-0.7,0-1.3-0.1-1.7l0,0l0,0c0.2,0,0.4,0,0.4,0l0,0l0,0
		c0.8,0,1.2,0.4,1.2,1.2l0,0l0,0c0,0.2-0.1,0.9-0.3,2.2l0,0l0,0c-0.2,1.3-0.3,2.3-0.3,3l0,0l0,0c0,0.8,0.1,1.4,0.4,2l0,0l0,0
		c-0.6-0.1-1-0.4-1.3-0.8l0,0l0,0c-0.3-0.4-0.4-1-0.4-1.7l0,0l0,0c0-0.1,0-0.4,0.1-0.8l0,0l0,0c-0.3,0.9-0.7,1.6-1.3,2.1l0,0l0,0
		c-0.6,0.5-1.3,0.8-1.9,0.8l0,0l0,0c-0.6,0-1.1-0.2-1.5-0.7l0,0l0,0c-0.4-0.5-0.6-1.1-0.6-1.9l0,0l0,0c0-0.8,0.2-1.6,0.5-2.4l0,0
		l0,0c0.3-0.8,0.8-1.5,1.4-2l0,0l0,0c0.6-0.6,1.3-0.9,2.1-0.9l0,0l0,0c0.3,0,0.7,0.1,1.1,0.2l0,0l0,0c-0.6,0.1-1.1,0.4-1.5,0.8l0,0
		l0,0C11.4,9.1,11,9.5,10.8,10z M24.8,5.7L24.8,5.7l0,0.2l0,0c0,0.4-0.1,1.5-0.4,3.5l0,0l0,0c-0.3,2-0.4,3.6-0.4,4.9l0,0l0,0
		c0,0.6,0,1,0.1,1.4l0,0l0,0c-0.2,0-0.4,0-0.4,0l0,0l0,0c-0.4,0-0.7-0.1-0.9-0.3l0,0l0,0c-0.2-0.2-0.3-0.5-0.3-0.9l0,0l0,0
		c0-0.4,0.2-1.8,0.5-4l0,0l0,0c0.3-2.2,0.5-3.8,0.5-4.7l0,0l0,0c0-0.9-0.1-1.6-0.2-1.9l0,0l0,0c0.3,0,0.6,0.2,0.8,0.3l0,0l0,0
		c0.3,0.2,0.5,0.4,0.6,0.8l0,0l0,0c0.7-0.4,1.5-0.6,2.4-0.6l0,0l0,0c0.9,0,1.6,0.3,2.1,0.8l0,0l0,0c0.5,0.5,0.8,1.2,0.8,2l0,0l0,0
		c0,1-0.4,1.9-1.1,2.7l0,0l0,0c-0.7,0.8-1.7,1.2-2.9,1.2l0,0l0,0c-0.3,0-0.5,0-0.8,0l0,0l0-0.5l0,0c0.6,0,1.2-0.1,1.6-0.3l0,0l0,0
		c0.5-0.2,0.8-0.4,1.1-0.7l0,0l0,0c0.5-0.6,0.7-1.3,0.7-2.1l0,0l0,0c0-0.6-0.2-1.1-0.6-1.4l0,0l0,0c-0.4-0.4-0.9-0.6-1.6-0.6l0,0
		l0,0C25.9,5.4,25.4,5.5,24.8,5.7z M33,10L33,10L33,10c-0.3,0.5-0.5,0.9-0.6,1.4l0,0l0,0c-0.1,0.5-0.2,1-0.2,1.4l0,0l0,0
		c0,0.4,0.1,0.8,0.3,1.1l0,0l0,0c0.2,0.3,0.5,0.5,0.9,0.5l0,0l0,0c0.5,0,1-0.3,1.5-0.9l0,0l0,0c0.5-0.6,0.8-1.3,1-2.1l0,0l0,0
		c0.3-0.8,0.4-1.6,0.4-2.3l0,0l0,0c0-0.7,0-1.3-0.1-1.7l0,0l0,0c0.2,0,0.4,0,0.4,0l0,0l0,0c0.8,0,1.2,0.4,1.2,1.2l0,0l0,0
		c0,0.2-0.1,0.9-0.3,2.2l0,0l0,0c-0.2,1.3-0.3,2.3-0.3,3l0,0l0,0c0,0.8,0.1,1.4,0.4,2l0,0l0,0c-0.6-0.1-1-0.4-1.3-0.8l0,0l0,0
		c-0.3-0.4-0.4-1-0.4-1.7l0,0l0,0c0-0.1,0-0.4,0.1-0.8l0,0l0,0c-0.3,0.9-0.7,1.6-1.3,2.1l0,0l0,0c-0.6,0.5-1.3,0.8-1.9,0.8l0,0l0,0
		c-0.6,0-1.1-0.2-1.5-0.7l0,0l0,0c-0.4-0.5-0.6-1.1-0.6-1.9l0,0l0,0c0-0.8,0.2-1.6,0.5-2.4l0,0l0,0c0.3-0.8,0.8-1.5,1.4-2l0,0l0,0
		c0.6-0.6,1.3-0.9,2-0.9l0,0l0,0c0.3,0,0.7,0.1,1.1,0.2l0,0l0,0C35,8.1,34.5,8.3,34,8.7l0,0l0,0C33.6,9.1,33.2,9.5,33,10z M46.3,9.3
		L46.3,9.3L46.3,9.3c0,0.4-0.1,1.2-0.3,2.3l0,0l0,0c-0.2,1.1-0.3,1.9-0.3,2.4l0,0l0,0c0,0.5,0.1,0.9,0.2,1.1l0,0l0,0
		c0.1,0.2,0.3,0.4,0.6,0.6l0,0l0,0c-0.1,0-0.3,0-0.5,0l0,0l0,0c-0.6,0-1.1-0.1-1.3-0.4l0,0l0,0c-0.3-0.2-0.4-0.7-0.4-1.3l0,0l0,0
		c0-0.3,0.1-1,0.3-2.1l0,0l0,0c0.2-1.1,0.3-1.8,0.3-2.3l0,0l0,0c0-0.6-0.2-0.9-0.6-0.9l0,0l0,0c-0.6,0-1.2,0.5-1.9,1.6l0,0l0,0
		c-0.6,1.1-1,2.3-1,3.8l0,0l0,0c0,0.6,0,1,0.1,1.4l0,0l0,0c-0.2,0-0.4,0-0.4,0l0,0l0,0c-0.8,0-1.2-0.4-1.2-1.2l0,0l0,0
		c0-0.2,0.1-0.9,0.3-2.1l0,0l0,0c0.2-1.3,0.3-2.3,0.3-3l0,0l0,0c0-0.7-0.1-1.4-0.2-2.1l0,0l0,0c0.6,0.2,0.9,0.5,1.2,0.9l0,0l0,0
		c0.2,0.4,0.3,0.9,0.3,1.4l0,0l0,0c0,0.5-0.1,1.1-0.2,1.8l0,0l0,0c0.3-1.1,0.8-1.9,1.5-2.7l0,0l0,0c0.7-0.7,1.3-1.1,1.8-1.1l0,0l0,0
		C45.9,7.4,46.3,8,46.3,9.3z M53.1,7.8L53.1,7.8L53.1,7.8c0,0.4-0.1,0.7-0.2,0.8l0,0l0,0c-0.2,0.1-0.4,0.2-0.7,0.2l0,0h-1l0,0
		c0,0.2-0.1,0.8-0.3,1.7l0,0l0,0c-0.3,1.7-0.5,3-0.5,3.9l0,0l0,0c0,0.9,0.1,1.5,0.2,1.8l0,0l0,0c-0.5-0.2-0.9-0.5-1.1-0.9l0,0l0,0
		c-0.2-0.4-0.3-0.9-0.3-1.4l0,0l0,0c0-0.6,0-1.1,0.1-1.6l0,0l0,0c0.1-0.5,0.2-1.1,0.3-1.8l0,0l0,0c0.1-0.7,0.2-1.2,0.3-1.6l0,0l0,0
		c-0.5,0.1-1.1,0.2-1.6,0.4l0,0l0,0c0-0.2,0-0.3,0-0.4l0,0l0,0c0-0.4,0.1-0.7,0.4-0.9l0,0l0,0C49,7.8,49.4,7.8,50,7.8l0,0l0,0
		C50,7.1,50,6.6,50,6.2l0,0l0,0c0-0.3,0-0.6,0-0.8l0,0l0,0c0-0.2,0-0.4,0-0.5l0,0l0,0c0.4,0.1,0.8,0.3,1,0.6l0,0l0,0
		c0.2,0.3,0.4,0.7,0.4,1.3l0,0l0,0c0,0.3,0,0.6-0.1,1l0,0l0,0c0.8,0,1.4-0.1,1.7-0.4l0,0l0,0C53,7.5,53.1,7.6,53.1,7.8z M55.7,11.1
		L55.7,11.1c0.3-1.1,0.8-1.9,1.4-2.7l0,0l0,0c0.6-0.7,1.2-1.1,1.8-1.1l0,0l0,0c0.6,0,1,0.2,1.2,0.5l0,0l0,0c0.2,0.3,0.4,0.8,0.4,1.4
		l0,0l0,0c0,0.6-0.1,1.4-0.3,2.4l0,0l0,0c-0.2,1.1-0.3,1.8-0.3,2.3l0,0l0,0c0,0.5,0.1,0.8,0.2,1.1l0,0l0,0c0.1,0.2,0.3,0.4,0.6,0.6
		l0,0l0,0c-0.1,0-0.3,0-0.5,0l0,0l0,0c-0.6,0-1-0.1-1.3-0.4l0,0l0,0c-0.3-0.2-0.4-0.7-0.4-1.3l0,0l0,0c0-0.3,0.1-1,0.3-2.1l0,0l0,0
		c0.2-1.1,0.3-1.8,0.3-2.3l0,0l0,0c0-0.6-0.2-0.9-0.6-0.9l0,0l0,0c-0.3,0-0.5,0.1-0.8,0.4l0,0l0,0c-0.3,0.3-0.6,0.6-0.9,1.1l0,0l0,0
		c-0.3,0.5-0.5,1-0.7,1.7l0,0l0,0c-0.2,0.7-0.3,1.4-0.3,2.1l0,0l0,0c0,0.7,0,1.2,0.1,1.5l0,0l0,0c-0.2,0-0.4,0-0.4,0l0,0l0,0
		c-0.4,0-0.8-0.1-1-0.3l0,0l0,0C54.1,15,54,14.7,54,14.3l0,0l0,0c0-0.4,0.1-1.2,0.3-2.3l0,0l0,0C54.8,8.5,55,5.9,55,4.1l0,0l0,0
		c0-0.8-0.1-1.4-0.2-1.6l0,0l0,0C55.4,2.7,55.8,3,56,3.3l0,0l0,0c0.2,0.4,0.3,0.9,0.3,1.6l0,0l0,0c0,0.5-0.1,1.4-0.3,2.9l0,0l0,0
		C55.9,9.3,55.8,10.4,55.7,11.1L55.7,11.1z M66.3,8.1L66.3,8.1L66.3,8.1c-0.6,0-1,0.3-1.4,1l0,0l0,0c-0.4,0.6-0.7,1.4-0.8,2.3l0,0
		h0.4l0,0c0.5,0,0.9-0.1,1.3-0.2l0,0l0,0c0.4-0.1,0.6-0.3,0.8-0.5l0,0l0,0c0.4-0.4,0.6-0.9,0.6-1.5l0,0l0,0c0-0.3-0.1-0.6-0.2-0.7
		l0,0l0,0C66.8,8.2,66.6,8.1,66.3,8.1z M68.3,13.8L68.3,13.8c-0.4,0.7-0.9,1.2-1.4,1.5l0,0l0,0c-0.5,0.3-1.1,0.4-1.8,0.4l0,0l0,0
		c-0.7,0-1.3-0.3-1.8-0.9l0,0l0,0c-0.5-0.6-0.8-1.4-0.8-2.5l0,0l0,0c0-1.2,0.3-2.3,1-3.3l0,0l0,0c0.3-0.5,0.8-0.8,1.3-1.1l0,0l0,0
		c0.5-0.3,1.1-0.4,1.7-0.4l0,0l0,0c1.4,0,2.1,0.7,2.1,2l0,0l0,0c0,0.8-0.3,1.4-0.9,1.9l0,0l0,0c-0.6,0.5-1.4,0.7-2.2,0.7l0,0l0,0
		c-0.6,0-1.1,0-1.5-0.1l0,0l0,0c0,0.1,0,0.2,0,0.4l0,0l0,0c0,1.7,0.5,2.5,1.5,2.5l0,0l0,0c0.9,0,1.7-0.5,2.3-1.4l0,0l0,0
		C68.1,13.4,68.3,13.5,68.3,13.8L68.3,13.8z M68,6.3L68,6.3L68,6.3c0,0.1-0.1,0.2-0.2,0.3l0,0l0,0c-0.1,0.1-0.2,0.1-0.3,0.2l0,0l0,0
		c-0.3-0.4-0.8-0.8-1.3-1.2l0,0l0,0c-0.5-0.4-1.1-0.7-1.6-0.9l0,0l0,0c0-0.5,0.2-0.9,0.7-1.1l0,0l0,0c0.5,0.2,1,0.6,1.5,1.2l0,0l0,0
		C67.4,5.2,67.7,5.8,68,6.3z M72.1,10.9L72.1,10.9c0.3-1.2,0.7-2.1,1.2-2.7l0,0l0,0c0.5-0.6,0.9-0.9,1.3-0.9l0,0l0,0
		c0.4,0,0.7,0.2,0.9,0.4l0,0l0,0c0.2,0.3,0.3,0.7,0.3,1.2l0,0l0,0c0,0.5-0.1,0.9-0.4,1.2l0,0l0,0c-0.2,0.3-0.6,0.5-1.1,0.5l0,0l0,0
		c-0.1,0-0.3,0-0.3,0l0,0l0,0c0.3-0.5,0.5-0.9,0.5-1.4l0,0l0,0c0-0.3-0.1-0.5-0.4-0.5l0,0l0,0c-0.2,0-0.4,0.1-0.7,0.4l0,0l0,0
		c-0.2,0.3-0.5,0.6-0.7,1.1l0,0l0,0c-0.2,0.5-0.4,1-0.6,1.7l0,0l0,0C72,12.6,72,13.4,72,14.2l0,0l0,0c0,0.1,0,0.5,0.1,1.2l0,0l0,0
		c-0.2,0-0.4,0-0.4,0l0,0l0,0c-0.8,0-1.2-0.4-1.2-1.2l0,0l0,0c0-0.2,0.1-0.9,0.3-2.1l0,0l0,0c0.2-1.3,0.3-2.3,0.3-3l0,0l0,0
		c0-0.7-0.1-1.4-0.2-2.1l0,0l0,0c0.6,0.2,0.9,0.5,1.2,0.9l0,0l0,0c0.2,0.4,0.3,0.9,0.3,1.4l0,0l0,0C72.2,9.9,72.2,10.4,72.1,10.9
		L72.1,10.9z M80.3,8.1L80.3,8.1L80.3,8.1c-0.6,0-1,0.3-1.4,1l0,0l0,0c-0.4,0.6-0.6,1.4-0.8,2.3l0,0h0.4l0,0c0.5,0,0.9-0.1,1.3-0.2
		l0,0l0,0c0.4-0.1,0.6-0.3,0.8-0.5l0,0l0,0c0.4-0.4,0.6-0.9,0.6-1.5l0,0l0,0c0-0.3-0.1-0.6-0.2-0.7l0,0l0,0
		C80.9,8.2,80.6,8.1,80.3,8.1z M82.3,13.8L82.3,13.8c-0.4,0.7-0.9,1.2-1.4,1.5l0,0l0,0c-0.5,0.3-1.1,0.4-1.8,0.4l0,0l0,0
		c-0.7,0-1.3-0.3-1.8-0.9l0,0l0,0c-0.5-0.6-0.8-1.4-0.8-2.5l0,0l0,0c0-1.2,0.3-2.3,1-3.3l0,0l0,0c0.3-0.5,0.8-0.8,1.3-1.1l0,0l0,0
		c0.5-0.3,1.1-0.4,1.7-0.4l0,0l0,0c1.4,0,2.1,0.7,2.1,2l0,0l0,0c0,0.8-0.3,1.4-0.9,1.9l0,0l0,0c-0.6,0.5-1.4,0.7-2.2,0.7l0,0l0,0
		c-0.6,0-1.1,0-1.5-0.1l0,0l0,0c0,0.1,0,0.2,0,0.4l0,0l0,0c0,1.7,0.5,2.5,1.5,2.5l0,0l0,0c0.9,0,1.7-0.5,2.3-1.4l0,0l0,0
		C82.1,13.4,82.3,13.5,82.3,13.8L82.3,13.8z"/>
</g>
<g id="_x39_7221fff-9f5f-45e5-b2fa-fe4d6ef25df3" transform="matrix(1.2101654687240968,0,0,1.2101654687240968,-4.368992009843154,-14.702727655207887)">
	<path class="st0" d="M44,46.1L44,46.1c-0.8-1.4-2-2.4-3.5-2.8h-0.1c-0.8-0.2-1.7-0.4-2.5-0.5c-2.3-0.3-4.5-1.1-6.4-2.4
		c-0.4-0.2-0.8-0.1-1,0.3c-0.2,0.3-0.1,0.8,0.2,1c0.6,0.4,1.3,0.8,2,1.1c0,0.1-0.1,0.2-0.1,0.3c-0.9,3.2,0.9,6.6,4.1,7.5
		c0.6,0.2,1.2,0.3,1.8,0.3c1.8,0,3.6-0.8,4.7-2.3c0.1,1,0,2-0.2,3c-0.2,0.4,0,0.8,0.4,1c0,0,0,0,0.1,0c0.1,0,0.2,0,0.2,0
		c0.3,0,0.6-0.2,0.7-0.5c0.3-1.3,0.4-2.7,0.2-4.1C44.5,47.3,44.3,46.7,44,46.1z M39.5,44.6c0,0.2,0,0.3,0,0.5
		c-0.2,0.7-0.9,1.1-1.6,0.9s-1.1-0.9-0.9-1.6c0-0.1,0.1-0.1,0.1-0.2l0.6,0.1C38.3,44.3,38.9,44.4,39.5,44.6L39.5,44.6z M40.5,48.8
		c-1.1,0.6-2.3,0.7-3.5,0.3c-2.4-0.7-3.8-3.2-3.1-5.7v-0.1c0.6,0.2,1.1,0.4,1.7,0.5V44c-0.5,1.5,0.3,3,1.8,3.5
		c1.5,0.5,3-0.3,3.5-1.8c0.1-0.2,0.1-0.3,0.1-0.5c0.6,0.3,1.1,0.8,1.5,1.3C42.1,47.5,41.4,48.3,40.5,48.8L40.5,48.8z M67.6,43.1
		c0-0.1-0.1-0.2-0.1-0.3c0.7-0.3,1.4-0.7,2-1.1c0.3-0.3,0.4-0.7,0.1-1.1c-0.2-0.3-0.7-0.4-1-0.2c-1.9,1.3-4.1,2.1-6.4,2.4
		c-0.9,0.1-1.7,0.2-2.5,0.5h-0.1C58,43.7,56.8,44.6,56,46v0c-0.3,0.6-0.5,1.3-0.5,2c-0.2,1.4-0.1,2.8,0.2,4.1
		c0.1,0.3,0.4,0.5,0.7,0.5c0.4,0,0.8-0.3,0.8-0.7c0-0.1,0-0.2,0-0.3c-0.2-1-0.3-2-0.2-3c1.1,1.4,2.9,2.3,4.7,2.3
		c0.6,0,1.2-0.1,1.8-0.3C66.6,49.7,68.5,46.3,67.6,43.1C67.6,43.1,67.6,43.1,67.6,43.1z M62.3,44.3l0.6-0.1c0,0.1,0.1,0.1,0.1,0.2
		c0.2,0.7-0.2,1.4-0.9,1.6c-0.7,0.2-1.4-0.2-1.6-0.8c-0.1-0.2-0.1-0.4,0-0.6C61,44.4,61.7,44.3,62.3,44.3L62.3,44.3z M63,49.1
		c-1.2,0.3-2.4,0.2-3.5-0.3c-0.9-0.5-1.7-1.4-2-2.4c0.4-0.6,0.9-1,1.5-1.3c0,0.1,0,0.2,0.1,0.4c0.4,1.2,1.4,2,2.7,2
		c1.5,0,2.8-1.3,2.7-2.9c0-0.2,0-0.4-0.1-0.7v-0.1c0.6-0.2,1.1-0.3,1.7-0.5v0.1C66.8,45.9,65.4,48.4,63,49.1z"/>
	<path class="st0" d="M46.3,44.9c-0.2-2.3-2-3.7-5.1-3.9c-1.7-0.2-3.3-0.8-4.7-1.7c-0.3-0.2-0.8-0.1-1,0.2s-0.1,0.8,0.2,1
		c1.6,1,3.5,1.7,5.4,1.9c1.3,0.1,3.6,0.6,3.8,2.5c0,0.4,0.4,0.7,0.8,0.7h0C46.1,45.7,46.4,45.3,46.3,44.9z M59.3,42.5
		c1.9-0.2,3.8-0.9,5.4-1.9c0.3-0.2,0.4-0.7,0.2-1c-0.2-0.3-0.7-0.4-1-0.2c-1.4,0.9-3,1.5-4.7,1.7c-3.1,0.2-5,1.7-5.2,3.9
		c0,0.4,0.3,0.8,0.7,0.8c0,0,0,0,0,0h0c0.4,0,0.7-0.3,0.8-0.7C55.7,43,58,42.6,59.3,42.5z M34.6,37.2c0.3,0.3,0.7,0.4,1.1,0.1
		s0.4-0.7,0.1-1.1c0,0,0,0,0,0l-3.2-3.9c-0.3-0.3-0.7-0.4-1.1-0.1c-0.3,0.3-0.4,0.7-0.1,1.1c0,0,0,0,0,0L34.6,37.2z M38,35.1
		c0.1,0.3,0.4,0.5,0.7,0.5c0.4,0,0.7-0.3,0.7-0.8c0-0.1,0-0.2,0-0.2L38,30.9c-0.1-0.4-0.6-0.6-1-0.4s-0.6,0.6-0.4,1L38,35.1z
		 M42,35.2c0.4,0,0.7-0.3,0.8-0.7l0.3-3.2c0-0.4-0.3-0.8-0.7-0.8c0,0,0,0,0,0c-0.4,0-0.8,0.3-0.8,0.7c0,0,0,0,0,0l-0.3,3.2
		C41.2,34.8,41.5,35.2,42,35.2C42,35.2,42,35.2,42,35.2z"/>
	<path class="st0" d="M95.3,61c-3.9-1.2-13.1-1.1-20.5-0.8c5-6.3,5-12.4,4.1-15.3c-0.7-2.2-1.7-7.6-0.4-9.7c0.2-0.4,0.7-0.7,1.2-0.8
		c1.8-0.2,2.1-2.1,2.3-3.5c0.1-0.5,0.2-1,0.3-1.5c0.3-0.5,0.7-1,1.2-1.4c1.4-1.1,2.5-2.6,3.2-4.2c1.6-3.9-0.5-5.8-0.6-5.9
		c-0.1-0.1-0.2-0.1-0.3-0.1h-0.1c-1.6-0.4-3.4-0.2-4.8,0.7c-0.7,0.3-1.5,0.7-2.8,1.3c-2.7,1.3-5.9,0.8-8-1.3
		c-4.5-4.3-7.7-5.6-20.1-5.6s-15.5,1.3-20,5.6c-2.1,2.1-5.3,2.7-8,1.3c-0.9-0.4-1.9-0.8-2.8-1.3c-1.4-0.9-3.2-1.2-4.8-0.7h-0.1
		c-0.1,0-0.2,0.1-0.3,0.1c-0.1,0.1-2.2,2-0.6,5.9c0.7,1.7,1.8,3.1,3.2,4.2c0.5,0.4,0.9,0.8,1.2,1.4c0.1,0.5,0.2,1,0.2,1.6
		c0.3,1.5,0.6,3.3,2.3,3.5c0.5,0.1,0.9,0.3,1.2,0.8c1.3,2.1,0.3,7.5-0.4,9.7c-0.9,2.9-0.9,9,4.1,15.3C17.8,59.9,8.6,59.8,4.7,61
		c-0.4,0.1-0.6,0.6-0.5,0.9c0.1,0.4,0.6,0.6,0.9,0.5c4.1-1.3,15-1,21.2-0.7h0.3l0.6,0.7c-7.7,0.1-12.9,0.6-15.5,1.6
		c-0.4,0.1-0.6,0.6-0.5,0.9c0.1,0.4,0.6,0.6,0.9,0.5c0,0,0,0,0,0c2.6-0.9,8.3-1.4,16.6-1.5c0.4,0.3,0.7,0.6,1.1,0.9
		c-6.5,0.4-17,1.2-21,3c-0.4,0.2-0.5,0.6-0.3,1c0.2,0.3,0.6,0.5,0.9,0.4c4.2-1.8,16.2-2.6,22.2-2.9l1,0.7l0.1,0.1
		c-6.3,0.6-10.6,1.4-12.8,2.4c-0.4,0.2-0.5,0.6-0.3,1c0.2,0.3,0.6,0.5,0.9,0.4c2.1-0.9,6.4-1.7,12.7-2.3c0,1.8,0.2,3.7,0.7,5.5
		c1.6,4.3,3.9,5.4,6.5,5.6c0.4,0.7,0.9,1.3,1.5,1.8c-1.4,1.3-2.5,2.8-3.4,4.5c-0.1,0.4,0,0.8,0.4,1s0.8,0,1-0.4
		c0.3-0.7,1.1-2,3.3-4.2c0.6,0.3,1.3,0.6,2,0.8c-0.5,1.1-0.8,2.2-0.9,3.4c0,0.4,0.3,0.8,0.7,0.8c0,0,0,0,0,0c0.4,0,0.7-0.3,0.8-0.7
		c0.1-1.1,0.4-2.2,0.9-3.2c2.2,0.4,4.4,0.4,6.5,0c0.5,1,0.8,2.1,0.9,3.2c0,0.4,0.4,0.7,0.8,0.7c0.4,0,0.7-0.4,0.7-0.8c0,0,0,0,0,0
		c-0.1-1.2-0.4-2.3-0.9-3.4c0.7-0.2,1.4-0.5,2-0.8c2.2,2.2,3,3.5,3.3,4.2c0.1,0.4,0.6,0.6,1,0.4s0.6-0.6,0.4-1
		c-0.8-1.7-2-3.2-3.4-4.5c0.6-0.5,1.1-1.1,1.5-1.8c2.6-0.2,4.8-1.3,6.4-5.6c0.5-1.8,0.7-3.6,0.7-5.4c6.3,0.6,10.7,1.4,12.7,2.3
		c0.4,0.2,0.8,0.1,1-0.3c0.2-0.4,0.1-0.8-0.3-1c0,0-0.1,0-0.1,0c-2.2-1-6.6-1.8-13-2.4l0.8-0.6l0.3-0.2c6,0.3,18.2,1.1,22.4,3
		c0.4,0.1,0.8-0.1,1-0.5c0.1-0.3,0-0.7-0.4-0.9c-4.1-1.8-14.6-2.6-21.1-3c0.4-0.3,0.8-0.6,1.1-0.9c8.3,0.1,14,0.6,16.6,1.5
		c0.4,0.1,0.8-0.1,0.9-0.5c0.1-0.4-0.1-0.8-0.4-0.9c-2.6-0.9-7.8-1.5-15.5-1.6l0.7-0.7h0.3c6.2-0.3,17.1-0.6,21.2,0.7
		c0.4,0.1,0.9-0.1,1-0.5C96,61.6,95.7,61.1,95.3,61z M53.3,79.9c-0.2-0.4-0.7-0.5-1-0.3c-0.4,0.2-0.5,0.7-0.3,1
		c0.2,0.3,0.4,0.7,0.6,1.2c-1.7,0.3-3.5,0.3-5.2,0c0.3-0.7,0.6-1.2,0.6-1.2c0.2-0.4,0.1-0.8-0.3-1c-0.4-0.2-0.8-0.1-1,0.3
		c0,0.1-0.4,0.7-0.9,1.7c-1.4-0.3-2.6-1-3.6-2h2.4c2.2,0,4.2-1.2,5.3-3.1c1.1,1.9,3.1,3.1,5.3,3.1h2.4c-1,1-2.2,1.7-3.6,2
		C53.7,80.7,53.3,80,53.3,79.9L53.3,79.9z M70.4,62.6L70.4,62.6c-0.9,0.8-1.8,1.4-2.8,2.1h-0.8c0.1-1.7,0.4-3.3,1.1-3.7
		c0.3-0.3,0.4-0.7,0.1-1.1c-0.3-0.3-0.7-0.4-1.1-0.1c-1,0.8-1.4,2.6-1.6,4.8h-0.6c-0.4,0-0.7,0.3-0.8,0.7c0,0,0,0,0,0
		c0,0.4,0.3,0.8,0.7,0.8c0,0,0,0,0,0h0.6v0.7h-0.2c-0.4,0-0.8,0.3-0.8,0.7c0,0.4,0.3,0.8,0.7,0.8h0.2c0,1.7-0.2,3.4-0.6,5
		c-1.4,3.8-3.1,4.5-5.5,4.7h-3.8c-2.5,0-4.5-2-4.5-4.5c0.3-0.3,0.7-0.6,1.2-0.8c1-0.6,2.5-1.5,1.9-2.8c-0.2-0.4-0.1-0.7,1.7-1.8
		l0.6-0.4c0.7-0.4,1.2-1.2,1.3-2c0-0.7-0.4-1.2-1-1.6c-0.3-0.2-0.8-0.1-1,0.2c-0.2,0.3-0.1,0.8,0.2,1c0.1,0.1,0.3,0.2,0.3,0.4
		s-0.2,0.4-0.7,0.8l-0.6,0.4c-1.6,1.1-2.9,2-2.2,3.6c-0.1,0.3-0.9,0.7-1.3,1c-0.4,0.2-0.8,0.5-1.1,0.8c-0.4-0.3-0.7-0.5-1.1-0.8
		c-0.5-0.3-0.9-0.6-1.3-0.9c0.7-1.7-0.6-2.5-2.2-3.7l-0.6-0.4c-0.5-0.3-0.7-0.6-0.7-0.8s0.2-0.3,0.3-0.4c0.3-0.2,0.4-0.7,0.2-1
		c-0.2-0.3-0.6-0.4-1-0.2c-0.6,0.4-0.9,0.9-1,1.6c0.1,0.8,0.6,1.6,1.3,2l0.6,0.4c1.7,1.2,1.8,1.4,1.7,1.8c-0.5,1.3,0.9,2.1,1.9,2.8
		c0.4,0.2,0.8,0.5,1.2,0.8c0,2.5-2,4.5-4.5,4.5h-1.6c-3.7,0.1-6,0.1-7.8-4.7c-0.4-1.7-0.6-3.3-0.6-5H35c0.4,0,0.7-0.4,0.7-0.8
		c0-0.4-0.4-0.7-0.8-0.7h-0.1v-0.7h0.6c0.4,0,0.8-0.3,0.8-0.8s-0.3-0.8-0.8-0.8h-0.6c-0.2-2.2-0.6-4-1.6-4.8
		c-0.4-0.3-0.9-0.2-1.1,0.1c-0.3,0.4-0.2,0.9,0.1,1.1c0.6,0.5,0.9,2,1.1,3.7h-0.9c-0.9-0.6-1.7-1.3-2.5-2c0-0.1-0.1-0.1-0.1-0.1
		c-0.3-0.2-0.5-0.5-0.8-0.7l2.3,0.2h0.1c0.4,0,0.8-0.3,0.8-0.7c0-0.4-0.3-0.8-0.7-0.8c0,0-1.6-0.1-4-0.3c-5.4-6.2-5.6-12.2-4.7-14.9
		c0-0.1,2.3-7.6,0.2-10.9c-0.5-0.8-1.3-1.3-2.2-1.4c-0.6-0.1-0.8-1-1-2.3c-0.1-0.6-0.2-1.2-0.4-1.8c-0.4-0.8-0.9-1.4-1.6-1.9
		c-1.2-1-2.2-2.2-2.8-3.7c-1-2.4-0.2-3.7,0.1-4.1c0.7-0.1,1.5,0.1,2.1,0.5c0.1,0.1,7.5,5.5,10.8,5.5H28c-3,2.1-4.8,4.9-4.8,7.6
		c0,0.4,0.3,0.8,0.8,0.8s0.8-0.3,0.8-0.8c0-2.8,2.6-5.9,6.6-7.9c1.6-0.2,3.1-0.7,4.5-1.5c0.4-0.2,0.5-0.6,0.3-1s-0.6-0.5-1-0.3
		c0,0,0,0,0,0c-2.3,1.2-4.9,1.7-7.6,1.6c-1.3,0-3.6-1.2-5.9-2.5c3.2,1.4,6.9,0.7,9.3-1.7c4-3.8,6.5-5.1,19-5.1s15,1.3,19,5.1
		c1.5,1.6,3.6,2.4,5.8,2.5c1.2,0,2.3-0.2,3.4-0.7c-2.2,1.3-4.6,2.5-5.8,2.5c-2.6,0.1-5.2-0.4-7.6-1.6c-0.4-0.2-0.8-0.1-1,0.3
		c-0.2,0.4-0.1,0.8,0.3,1c1.4,0.8,2.9,1.3,4.5,1.5c4,2,6.6,5,6.6,7.9c0,0.4,0.3,0.8,0.8,0.8s0.8-0.3,0.8-0.8c0-2.7-1.8-5.4-4.8-7.6
		h0.4c3.3,0,10.7-5.5,10.8-5.5c0.6-0.4,1.3-0.6,2.1-0.5c0.3,0.4,1.1,1.7,0.1,4.1c-0.6,1.4-1.6,2.7-2.8,3.7c-0.7,0.5-1.3,1.2-1.6,1.9
		c-0.2,0.6-0.4,1.2-0.4,1.8c-0.2,1.3-0.4,2.2-1,2.3c-0.9,0.1-1.8,0.6-2.3,1.5c-2.1,3.3,0.2,10.9,0.2,10.9c0.9,2.7,0.7,8.7-4.7,14.9
		c-2.4,0.1-4,0.3-4,0.3c-0.4,0-0.7,0.4-0.7,0.8s0.4,0.7,0.8,0.7h0.1l2.3-0.2C71,62.2,70.7,62.4,70.4,62.6z"/>
	<path class="st0" d="M64.8,37.5c0.2,0,0.4-0.1,0.6-0.3l3.2-3.9c0.3-0.3,0.2-0.8-0.1-1.1c-0.3-0.3-0.8-0.2-1.1,0.1c0,0,0,0,0,0
		l-3.2,3.9c-0.3,0.3-0.2,0.8,0.1,1.1C64.4,37.5,64.6,37.5,64.8,37.5L64.8,37.5z M61.1,35.5c0.1,0,0.2,0,0.3,0c0.3,0,0.6-0.2,0.7-0.5
		l1.4-3.7c0.1-0.4,0-0.8-0.4-1s-0.8,0-1,0.4l-1.4,3.7C60.5,34.9,60.6,35.3,61.1,35.5C61,35.5,61,35.5,61.1,35.5z M58,35.2
		c0.4,0,0.7-0.4,0.7-0.8c0,0,0,0,0,0l-0.3-3.2c0-0.4-0.4-0.7-0.8-0.7c-0.4,0-0.7,0.4-0.7,0.8l0.3,3.2C57.2,34.9,57.6,35.2,58,35.2
		C58,35.2,58,35.2,58,35.2z"/>
	<circle class="st0" cx="38.1" cy="69.8" r="1.1"/>
	<circle class="st0" cx="38.5" cy="73.4" r="1.1"/>
	<circle class="st0" cx="41.2" cy="75.8" r="1.1"/>
	<circle class="st0" cx="42.1" cy="72.1" r="1.1"/>
	<circle class="st0" cx="45.1" cy="73.9" r="1.1"/>
	<circle class="st0" cx="61.9" cy="69.8" r="1.1"/>
	<circle class="st0" cx="61.5" cy="73.4" r="1.1"/>
	<circle class="st0" cx="58.8" cy="75.8" r="1.1"/>
	<circle class="st0" cx="57.9" cy="72.1" r="1.1"/>
	<circle class="st0" cx="54.9" cy="73.9" r="1.1"/>
	<path class="st0" d="M53.6,52.5c-0.4,0-0.8,0.3-0.8,0.7c0,0,0,0,0,0c-0.3,2.1-1.3,4-2.7,5.4c-1.5-1.4-2.5-3.3-2.7-5.4
		c0-0.4-0.4-0.7-0.8-0.7c-0.4,0-0.7,0.4-0.7,0.8c0.4,2.7,1.7,5.1,3.7,6.9c0.1,0.1,0.3,0.2,0.5,0.2c0.2,0,0.3-0.1,0.5-0.2
		c2-1.8,3.4-4.2,3.7-6.9C54.2,52.9,53.9,52.6,53.6,52.5z M40.4,55.2c-0.4-0.2-0.8-0.1-1,0.3c-0.2,0.3-0.5,0.7-0.7,1.1
		c-1.3,1.9-3.4,4.9-0.5,8c0.3,0.3,0.8,0.2,1.1-0.1c0.2-0.3,0.2-0.6,0-0.9c-1.9-2-0.9-3.8,0.6-6.1c0.3-0.4,0.6-0.8,0.8-1.2
		C40.9,55.9,40.8,55.5,40.4,55.2C40.4,55.2,40.4,55.2,40.4,55.2z M60.7,55.5c-0.2-0.4-0.7-0.5-1-0.3c-0.4,0.2-0.5,0.7-0.3,1
		c0.2,0.4,0.5,0.8,0.8,1.2c1.6,2.3,2.5,4,0.6,6.1c-0.3,0.3-0.4,0.7-0.1,1.1c0.3,0.3,0.7,0.4,1.1,0.1c0.1,0,0.1-0.1,0.1-0.1
		c2.9-3.1,0.8-6-0.5-8C61.2,56.2,60.9,55.8,60.7,55.5z M41.9,65c0.1-0.4-0.1-0.8-0.5-0.9c-0.4-0.1-0.8,0.1-0.9,0.5
		c-0.6,1.9,0.2,3.9,1.9,4.8c0.4,0.2,0.8,0.1,1-0.3s0.1-0.8-0.3-1C42,67.5,41.5,66.2,41.9,65z M57.6,69.3c1.7-1,2.5-3,1.9-4.8
		c-0.1-0.4-0.6-0.6-0.9-0.5c-0.4,0.1-0.6,0.6-0.5,0.9l0,0c0.3,1.2-0.2,2.4-1.2,3c-0.4,0.2-0.5,0.7-0.3,1S57.3,69.5,57.6,69.3
		L57.6,69.3z M52.9,65.1c-1.4,1.6-3.8,1.8-5.4,0.4c-0.1-0.1-0.3-0.2-0.4-0.4c-0.3-0.3-0.8-0.4-1.1-0.1c-0.3,0.3-0.4,0.8-0.1,1.1
		c1.9,2.2,5.3,2.5,7.5,0.6c0.2-0.2,0.4-0.4,0.6-0.6c0.3-0.3,0.2-0.8-0.1-1.1C53.6,64.8,53.1,64.8,52.9,65.1L52.9,65.1L52.9,65.1z
		 M30.5,50.5c-0.3-0.2-0.8-0.1-1,0.2s-0.1,0.8,0.2,1c0,0,0.1,0,0.1,0.1c2.6,1.5,3.8,3.6,3.8,4.4c0,0.4,0.3,0.8,0.8,0.8
		s0.8-0.3,0.8-0.8C35.1,54.6,33.4,52.1,30.5,50.5z M70.6,50.8c-0.2-0.4-0.6-0.5-1-0.3c-2.9,1.6-4.6,4.1-4.6,5.7
		c0,0.4,0.3,0.8,0.7,0.8s0.8-0.3,0.8-0.8c0-0.8,1.1-2.9,3.8-4.4C70.6,51.7,70.8,51.2,70.6,50.8C70.6,50.8,70.6,50.8,70.6,50.8z"/>
</g>
<g id="_x35_4c8ca41-f910-4170-8f82-6d26474b6f31" transform="matrix(0.9559017435520097,0,0,0.9559017435520097,130.7275691282621,56.520518426468094)">
	<path d="M9.6,31.1l-1.4-3.6H2.6l-1.4,3.6H0.3l4.6-11.5h1l4.6,11.5H9.6z M3,26.6h4.9l-2-5l-0.4-1.2h0L5,21.6L3,26.6z M25.6,25.4h4.7
		v5.6h-0.7l0-2l0,0c-0.3,0.7-0.8,1.2-1.5,1.6l0,0l0,0c-0.7,0.4-1.5,0.6-2.5,0.6l0,0l0,0c-1,0-2-0.2-2.7-0.7l0,0l0,0
		c-0.8-0.5-1.4-1.2-1.8-2.1l0,0l0,0c-0.4-0.9-0.6-1.9-0.6-3.1l0,0l0,0c0-1.2,0.2-2.2,0.7-3.1l0,0l0,0c0.4-0.9,1-1.6,1.8-2.1l0,0l0,0
		c0.8-0.5,1.7-0.7,2.8-0.7l0,0l0,0c1.2,0,2.1,0.2,2.9,0.7l0,0l0,0c0.8,0.5,1.3,1.2,1.7,2.1l0,0l-0.8,0.4l0,0
		c-0.3-0.8-0.7-1.4-1.3-1.8l0,0l0,0c-0.6-0.4-1.4-0.6-2.4-0.6l0,0l0,0c-0.9,0-1.6,0.2-2.3,0.6l0,0l0,0c-0.6,0.4-1.2,1-1.5,1.8l0,0
		l0,0c-0.4,0.8-0.5,1.7-0.5,2.7l0,0l0,0c0,1.6,0.4,2.9,1.1,3.8l0,0l0,0c0.8,0.9,1.8,1.4,3.2,1.4l0,0l0,0c0.8,0,1.6-0.2,2.1-0.5l0,0
		l0,0c0.6-0.3,1-0.8,1.3-1.3l0,0l0,0c0.3-0.5,0.4-1.1,0.4-1.7l0,0v-0.6h-3.9V25.4z M43.1,30.3h7.3v0.8h-8.2V19.5h7.9v0.8h-7v4.5h5.5
		v0.8h-5.5V30.3z M70.5,19.5v11.5h-1.1L63.3,22l-0.9-1.5h0l0.1,1.5v9.1h-0.8V19.5h1.1l6.1,9l0.9,1.5l0-1.5v-9.1H70.5z M92,28.1
		L92,28.1c-0.3,1-0.9,1.7-1.7,2.3l0,0l0,0c-0.8,0.5-1.8,0.8-2.9,0.8l0,0l0,0c-1,0-2-0.2-2.8-0.7l0,0l0,0c-0.8-0.5-1.4-1.2-1.8-2.1
		l0,0l0,0c-0.4-0.9-0.6-1.9-0.6-3.1l0,0l0,0c0-1.2,0.2-2.2,0.6-3.1l0,0l0,0c0.4-0.9,1-1.6,1.8-2.1l0,0l0,0c0.8-0.5,1.7-0.7,2.8-0.7
		l0,0l0,0c2.3,0,3.8,0.9,4.5,2.8l0,0L91,22.6l0,0c-0.3-0.8-0.7-1.4-1.3-1.8l0,0l0,0c-0.6-0.4-1.4-0.6-2.3-0.6l0,0l0,0
		c-0.9,0-1.6,0.2-2.3,0.6l0,0l0,0c-0.7,0.4-1.2,1-1.5,1.8l0,0l0,0c-0.4,0.8-0.5,1.7-0.5,2.7l0,0l0,0c0,1.1,0.2,2,0.5,2.7l0,0l0,0
		c0.3,0.8,0.8,1.4,1.5,1.8l0,0l0,0c0.7,0.4,1.4,0.6,2.3,0.6l0,0l0,0c0.9,0,1.7-0.2,2.4-0.7l0,0l0,0c0.6-0.5,1.1-1.1,1.4-1.9l0,0
		L92,28.1z M104.2,30.3h7.3v0.8h-8.2V19.5h7.9v0.8h-7v4.5h5.5v0.8h-5.5V30.3z M140.7,19.5L140.7,19.5c1.8,0,3.3,0.5,4.3,1.5l0,0l0,0
		c1,1,1.5,2.4,1.5,4.2l0,0l0,0c0,1.9-0.5,3.3-1.5,4.4l0,0l0,0c-1,1-2.4,1.5-4.3,1.5l0,0H137V19.5H140.7z M140.8,30.3L140.8,30.3
		c1.5,0,2.7-0.4,3.5-1.3l0,0l0,0c0.8-0.9,1.2-2.1,1.2-3.8l0,0l0,0c0-1.6-0.4-2.8-1.2-3.6l0,0l0,0c-0.8-0.8-2-1.3-3.5-1.3l0,0h-2.8
		v9.9H140.8z M159,30.3h7.3v0.8h-8.2V19.5h7.9v0.8h-7v4.5h5.5v0.8H159V30.3z M197.5,23l-2.3,8.1h-1.1l-3.6-11.5h0.9l3.2,10.8l3-10.8
		h1l3,10.8l3.2-10.8h0.9l-3.6,11.5h-1.1l-2.3-8.1l-0.6-2.5h0L197.5,23z M217.8,30.3h7.3v0.8h-8.2V19.5h7.9v0.8h-7v4.5h5.6v0.8h-5.6
		V30.3z M236.4,31.1V19.5h4.1l0,0c1.3,0,2.2,0.3,2.8,0.8l0,0l0,0c0.6,0.5,0.9,1.3,0.9,2.3l0,0l0,0c0,0.7-0.2,1.2-0.6,1.7l0,0l0,0
		c-0.4,0.5-0.9,0.8-1.6,0.9l0,0v0l0,0c0.8,0.1,1.3,0.4,1.8,0.9l0,0l0,0c0.4,0.5,0.7,1.1,0.7,1.8l0,0l0,0c0,1-0.4,1.8-1.1,2.3l0,0
		l0,0c-0.7,0.5-1.7,0.8-3,0.8l0,0H236.4z M237.3,24.8h3.2l0,0c1.9,0,2.8-0.8,2.8-2.3l0,0l0,0c0-1.5-0.9-2.3-2.8-2.3l0,0h-3.2V24.8z
		 M237.3,30.3h3.4l0,0c1,0,1.7-0.2,2.2-0.6l0,0l0,0c0.5-0.4,0.8-1,0.8-1.7l0,0l0,0c0-0.8-0.3-1.3-0.8-1.7l0,0l0,0
		c-0.5-0.4-1.2-0.6-2.2-0.6l0,0h-3.4V30.3z M274.1,19.5L274.1,19.5c1.8,0,3.3,0.5,4.3,1.5l0,0l0,0c1,1,1.5,2.4,1.5,4.2l0,0l0,0
		c0,1.9-0.5,3.3-1.5,4.4l0,0l0,0c-1,1-2.4,1.5-4.3,1.5l0,0h-3.6V19.5H274.1z M274.2,30.3L274.2,30.3c1.5,0,2.7-0.4,3.6-1.3l0,0l0,0
		c0.8-0.9,1.2-2.1,1.2-3.8l0,0l0,0c0-1.6-0.4-2.8-1.2-3.6l0,0l0,0c-0.8-0.8-2-1.3-3.6-1.3l0,0h-2.8v9.9H274.2z M292.4,30.3h7.3v0.8
		h-8.2V19.5h7.9v0.8h-7v4.5h5.6v0.8h-5.6V30.3z M314.5,19.3L314.5,19.3c2.2,0,3.6,0.8,4.4,2.5l0,0l-0.8,0.6l0,0
		c-0.3-0.8-0.7-1.4-1.3-1.8l0,0l0,0c-0.6-0.4-1.3-0.6-2.3-0.6l0,0l0,0c-0.7,0-1.3,0.1-1.8,0.3l0,0l0,0c-0.5,0.2-0.9,0.5-1.1,0.9l0,0
		l0,0c-0.3,0.4-0.4,0.8-0.4,1.2l0,0l0,0c0,0.4,0.1,0.8,0.3,1.1l0,0l0,0c0.2,0.3,0.6,0.5,1.1,0.8l0,0l0,0c0.5,0.2,1.3,0.4,2.2,0.6
		l0,0l0,0c1.5,0.3,2.6,0.6,3.2,1.1l0,0l0,0c0.6,0.5,0.9,1.2,0.9,2l0,0l0,0c0,0.6-0.2,1.2-0.5,1.6l0,0l0,0c-0.4,0.5-0.9,0.8-1.5,1.1
		l0,0l0,0c-0.7,0.3-1.4,0.4-2.3,0.4l0,0l0,0c-1.2,0-2.2-0.2-3.1-0.7l0,0l0,0c-0.8-0.5-1.4-1.2-1.7-2l0,0l0.8-0.6l0,0
		c0.2,0.8,0.7,1.5,1.4,1.9l0,0l0,0c0.7,0.4,1.6,0.7,2.6,0.7l0,0l0,0c1,0,1.8-0.2,2.5-0.6l0,0l0,0c0.6-0.4,1-1,1-1.7l0,0l0,0
		c0-0.6-0.3-1.1-0.8-1.5l0,0l0,0c-0.5-0.4-1.4-0.7-2.7-0.9l0,0l0,0c-1.1-0.2-1.9-0.4-2.6-0.7l0,0l0,0c-0.6-0.3-1.1-0.6-1.4-1l0,0
		l0,0c-0.3-0.4-0.4-0.9-0.4-1.5l0,0l0,0c0-0.6,0.2-1.1,0.5-1.6l0,0l0,0c0.3-0.5,0.8-0.9,1.5-1.2l0,0l0,0
		C313,19.5,313.7,19.3,314.5,19.3L314.5,19.3z M331.4,19.5v11.5h-0.9V19.5H331.4z M348.3,25.4h4.7v5.6h-0.7l0-2l0,0
		c-0.3,0.7-0.8,1.2-1.5,1.6l0,0l0,0c-0.7,0.4-1.5,0.6-2.5,0.6l0,0l0,0c-1,0-2-0.2-2.8-0.7l0,0l0,0c-0.8-0.5-1.4-1.2-1.8-2.1l0,0l0,0
		c-0.4-0.9-0.6-1.9-0.6-3.1l0,0l0,0c0-1.2,0.2-2.2,0.6-3.1l0,0l0,0c0.4-0.9,1.1-1.6,1.9-2.1l0,0l0,0c0.8-0.5,1.7-0.7,2.8-0.7l0,0
		l0,0c1.2,0,2.1,0.2,2.9,0.7l0,0l0,0c0.8,0.5,1.3,1.2,1.7,2.1l0,0l-0.8,0.4l0,0c-0.3-0.8-0.7-1.4-1.3-1.8l0,0l0,0
		c-0.6-0.4-1.4-0.6-2.4-0.6l0,0l0,0c-0.9,0-1.6,0.2-2.3,0.6l0,0l0,0c-0.6,0.4-1.2,1-1.5,1.8l0,0l0,0c-0.4,0.8-0.5,1.7-0.5,2.7l0,0
		l0,0c0,1.6,0.4,2.9,1.1,3.8l0,0l0,0c0.8,0.9,1.8,1.4,3.2,1.4l0,0l0,0c0.8,0,1.5-0.2,2.1-0.5l0,0l0,0c0.6-0.3,1-0.8,1.3-1.3l0,0l0,0
		c0.3-0.5,0.4-1.1,0.4-1.7l0,0v-0.6h-3.9V25.4z M373.7,19.5v11.5h-1.1l-6.1-9.1l-0.8-1.5h0l0,1.5v9.1h-0.8V19.5h1.1l6.1,9l0.9,1.5
		l0-1.5v-9.1H373.7z"/>
</g>
</svg>
